<mxfile host="app.diagrams.net" modified="2022-11-16T08:38:42.677Z" agent="5.0 (Windows NT 10.0; Win64; x64) AppleWebKit/537.36 (KHTML, like Gecko) Chrome/105.0.0.0 Safari/537.36 Edg/105.0.1343.33" etag="luBLyoOu4Ix5YtUwDEhp" version="20.5.3" type="github">
  <diagram id="tNJ5KlxAQ_EQhU1tzWIF" name="第 1 页">
    <mxGraphModel dx="1021" dy="567" grid="1" gridSize="10" guides="1" tooltips="1" connect="1" arrows="1" fold="1" page="1" pageScale="1" pageWidth="827" pageHeight="1169" math="0" shadow="0">
      <root>
        <mxCell id="0" />
        <mxCell id="1" parent="0" />
        <mxCell id="x3IM8xXVVAgO7ZRUx03g-33" style="edgeStyle=orthogonalEdgeStyle;rounded=0;orthogonalLoop=1;jettySize=auto;html=1;exitX=0;exitY=1;exitDx=0;exitDy=0;startArrow=classic;startFill=1;endArrow=none;endFill=0;" parent="1" source="x3IM8xXVVAgO7ZRUx03g-40" edge="1">
          <mxGeometry relative="1" as="geometry">
            <mxPoint x="315" y="480" as="targetPoint" />
          </mxGeometry>
        </mxCell>
        <mxCell id="x3IM8xXVVAgO7ZRUx03g-34" style="edgeStyle=orthogonalEdgeStyle;rounded=0;orthogonalLoop=1;jettySize=auto;html=1;exitX=0.5;exitY=1;exitDx=0;exitDy=0;startArrow=classic;startFill=1;endArrow=none;endFill=0;" parent="1" source="x3IM8xXVVAgO7ZRUx03g-40" edge="1">
          <mxGeometry relative="1" as="geometry">
            <mxPoint x="415" y="480" as="targetPoint" />
          </mxGeometry>
        </mxCell>
        <mxCell id="x3IM8xXVVAgO7ZRUx03g-35" style="edgeStyle=orthogonalEdgeStyle;rounded=0;orthogonalLoop=1;jettySize=auto;html=1;exitX=0.75;exitY=1;exitDx=0;exitDy=0;startArrow=classic;startFill=1;endArrow=none;endFill=0;" parent="1" source="x3IM8xXVVAgO7ZRUx03g-40" edge="1">
          <mxGeometry relative="1" as="geometry">
            <mxPoint x="465" y="480" as="targetPoint" />
          </mxGeometry>
        </mxCell>
        <mxCell id="x3IM8xXVVAgO7ZRUx03g-36" style="edgeStyle=orthogonalEdgeStyle;rounded=0;orthogonalLoop=1;jettySize=auto;html=1;exitX=1;exitY=1;exitDx=0;exitDy=0;startArrow=classic;startFill=1;endArrow=none;endFill=0;" parent="1" source="x3IM8xXVVAgO7ZRUx03g-40" edge="1">
          <mxGeometry relative="1" as="geometry">
            <mxPoint x="515" y="480" as="targetPoint" />
          </mxGeometry>
        </mxCell>
        <mxCell id="-q9a0EuMB8JSi1CjlUB1-10" style="edgeStyle=orthogonalEdgeStyle;rounded=0;orthogonalLoop=1;jettySize=auto;html=1;exitX=0.25;exitY=0;exitDx=0;exitDy=0;entryX=0.5;entryY=1;entryDx=0;entryDy=0;" edge="1" parent="1" source="x3IM8xXVVAgO7ZRUx03g-40" target="x3IM8xXVVAgO7ZRUx03g-47">
          <mxGeometry relative="1" as="geometry" />
        </mxCell>
        <mxCell id="-q9a0EuMB8JSi1CjlUB1-11" style="edgeStyle=orthogonalEdgeStyle;rounded=0;orthogonalLoop=1;jettySize=auto;html=1;exitX=0.5;exitY=0;exitDx=0;exitDy=0;entryX=0.5;entryY=1;entryDx=0;entryDy=0;" edge="1" parent="1" source="x3IM8xXVVAgO7ZRUx03g-40" target="x3IM8xXVVAgO7ZRUx03g-48">
          <mxGeometry relative="1" as="geometry" />
        </mxCell>
        <mxCell id="-q9a0EuMB8JSi1CjlUB1-12" style="edgeStyle=orthogonalEdgeStyle;rounded=0;orthogonalLoop=1;jettySize=auto;html=1;exitX=0.75;exitY=0;exitDx=0;exitDy=0;entryX=0.5;entryY=1;entryDx=0;entryDy=0;" edge="1" parent="1" source="x3IM8xXVVAgO7ZRUx03g-40" target="x3IM8xXVVAgO7ZRUx03g-49">
          <mxGeometry relative="1" as="geometry" />
        </mxCell>
        <mxCell id="x3IM8xXVVAgO7ZRUx03g-40" value="BERT Encoder" style="rounded=0;whiteSpace=wrap;html=1;" parent="1" vertex="1">
          <mxGeometry x="315" y="400" width="200" height="30" as="geometry" />
        </mxCell>
        <mxCell id="x3IM8xXVVAgO7ZRUx03g-41" value="[CLS]" style="text;html=1;align=center;verticalAlign=middle;resizable=0;points=[];autosize=1;strokeColor=none;fillColor=none;" parent="1" vertex="1">
          <mxGeometry x="290" y="475" width="50" height="30" as="geometry" />
        </mxCell>
        <mxCell id="x3IM8xXVVAgO7ZRUx03g-42" value="" style="edgeStyle=orthogonalEdgeStyle;rounded=0;orthogonalLoop=1;jettySize=auto;html=1;exitX=0.25;exitY=1;exitDx=0;exitDy=0;startArrow=classic;startFill=1;endArrow=none;endFill=0;" parent="1" source="x3IM8xXVVAgO7ZRUx03g-40" edge="1">
          <mxGeometry relative="1" as="geometry">
            <mxPoint x="365" y="475" as="targetPoint" />
            <mxPoint x="365" y="430" as="sourcePoint" />
          </mxGeometry>
        </mxCell>
        <mxCell id="x3IM8xXVVAgO7ZRUx03g-43" value="POS" style="text;html=1;align=center;verticalAlign=middle;resizable=0;points=[];autosize=1;strokeColor=none;fillColor=none;" parent="1" vertex="1">
          <mxGeometry x="340" y="475" width="50" height="30" as="geometry" />
        </mxCell>
        <mxCell id="x3IM8xXVVAgO7ZRUx03g-44" value="NEG" style="text;html=1;align=center;verticalAlign=middle;resizable=0;points=[];autosize=1;strokeColor=none;fillColor=none;" parent="1" vertex="1">
          <mxGeometry x="390" y="475" width="50" height="30" as="geometry" />
        </mxCell>
        <mxCell id="x3IM8xXVVAgO7ZRUx03g-45" value="love" style="text;html=1;align=center;verticalAlign=middle;resizable=0;points=[];autosize=1;strokeColor=none;fillColor=none;" parent="1" vertex="1">
          <mxGeometry x="440" y="475" width="50" height="30" as="geometry" />
        </mxCell>
        <mxCell id="x3IM8xXVVAgO7ZRUx03g-46" value="qlu" style="text;html=1;align=center;verticalAlign=middle;resizable=0;points=[];autosize=1;strokeColor=none;fillColor=none;" parent="1" vertex="1">
          <mxGeometry x="495" y="475" width="40" height="30" as="geometry" />
        </mxCell>
        <mxCell id="-q9a0EuMB8JSi1CjlUB1-13" style="edgeStyle=orthogonalEdgeStyle;rounded=0;orthogonalLoop=1;jettySize=auto;html=1;exitX=0.5;exitY=0;exitDx=0;exitDy=0;entryX=0.5;entryY=1;entryDx=0;entryDy=0;" edge="1" parent="1" source="x3IM8xXVVAgO7ZRUx03g-47" target="x3IM8xXVVAgO7ZRUx03g-80">
          <mxGeometry relative="1" as="geometry" />
        </mxCell>
        <mxCell id="x3IM8xXVVAgO7ZRUx03g-47" value="" style="rounded=0;whiteSpace=wrap;html=1;fillStyle=hatch;fillColor=#000000;" parent="1" vertex="1">
          <mxGeometry x="340" y="300" width="20" height="60" as="geometry" />
        </mxCell>
        <mxCell id="-q9a0EuMB8JSi1CjlUB1-14" style="edgeStyle=orthogonalEdgeStyle;rounded=0;orthogonalLoop=1;jettySize=auto;html=1;exitX=0.5;exitY=0;exitDx=0;exitDy=0;entryX=0.5;entryY=1;entryDx=0;entryDy=0;" edge="1" parent="1" source="x3IM8xXVVAgO7ZRUx03g-48" target="x3IM8xXVVAgO7ZRUx03g-79">
          <mxGeometry relative="1" as="geometry" />
        </mxCell>
        <mxCell id="x3IM8xXVVAgO7ZRUx03g-48" value="" style="rounded=0;whiteSpace=wrap;html=1;fillStyle=dashed;fillColor=#000000;" parent="1" vertex="1">
          <mxGeometry x="405" y="300" width="20" height="60" as="geometry" />
        </mxCell>
        <mxCell id="-q9a0EuMB8JSi1CjlUB1-15" style="edgeStyle=orthogonalEdgeStyle;rounded=0;orthogonalLoop=1;jettySize=auto;html=1;exitX=0.5;exitY=0;exitDx=0;exitDy=0;entryX=0.5;entryY=1;entryDx=0;entryDy=0;" edge="1" parent="1" source="x3IM8xXVVAgO7ZRUx03g-49" target="x3IM8xXVVAgO7ZRUx03g-81">
          <mxGeometry relative="1" as="geometry" />
        </mxCell>
        <mxCell id="x3IM8xXVVAgO7ZRUx03g-49" value="" style="rounded=0;whiteSpace=wrap;html=1;fillStyle=dashed;fillColor=#000000;" parent="1" vertex="1">
          <mxGeometry x="470" y="300" width="20" height="60" as="geometry" />
        </mxCell>
        <mxCell id="x3IM8xXVVAgO7ZRUx03g-50" value="Target Sample(Class:POS)" style="text;html=1;align=center;verticalAlign=middle;resizable=0;points=[];autosize=1;strokeColor=none;fillColor=none;" parent="1" vertex="1">
          <mxGeometry x="320" y="500" width="170" height="30" as="geometry" />
        </mxCell>
        <mxCell id="x3IM8xXVVAgO7ZRUx03g-79" value="POS" style="rounded=0;whiteSpace=wrap;html=1;fillStyle=auto;strokeColor=#000000;fillColor=#FFFFFF;" parent="1" vertex="1">
          <mxGeometry x="389" y="220" width="50" height="20" as="geometry" />
        </mxCell>
        <mxCell id="x3IM8xXVVAgO7ZRUx03g-80" value="CLS" style="rounded=0;whiteSpace=wrap;html=1;fillStyle=auto;strokeColor=#000000;fillColor=#FFFFFF;" parent="1" vertex="1">
          <mxGeometry x="325" y="220" width="50" height="20" as="geometry" />
        </mxCell>
        <mxCell id="x3IM8xXVVAgO7ZRUx03g-81" value="NEG" style="rounded=0;whiteSpace=wrap;html=1;fillStyle=auto;strokeColor=#000000;fillColor=#FFFFFF;" parent="1" vertex="1">
          <mxGeometry x="455" y="220" width="50" height="20" as="geometry" />
        </mxCell>
        <mxCell id="x3IM8xXVVAgO7ZRUx03g-90" value="input feature&lt;br&gt;representation" style="text;html=1;align=center;verticalAlign=middle;resizable=0;points=[];autosize=1;strokeColor=none;fillColor=none;" parent="1" vertex="1">
          <mxGeometry x="220" y="310" width="100" height="40" as="geometry" />
        </mxCell>
        <mxCell id="x3IM8xXVVAgO7ZRUx03g-93" value="classifier&lt;br&gt;representation" style="text;html=1;align=center;verticalAlign=middle;resizable=0;points=[];autosize=1;strokeColor=none;fillColor=none;" parent="1" vertex="1">
          <mxGeometry x="520" y="300" width="100" height="40" as="geometry" />
        </mxCell>
      </root>
    </mxGraphModel>
  </diagram>
</mxfile>
